<mxfile host="app.diagrams.net" modified="2022-08-05T03:18:23.016Z" agent="5.0 (Windows NT 10.0; Win64; x64) AppleWebKit/537.36 (KHTML, like Gecko) Chrome/80.0.3987.100 Safari/537.36" etag="UvVHcrconkAMeTevyzpv" version="17.2.5" type="github">
  <diagram id="tb9-orjRJY7nu71FQeK1" name="Page-1">
    <mxGraphModel dx="514" dy="784" grid="1" gridSize="10" guides="1" tooltips="1" connect="1" arrows="1" fold="1" page="1" pageScale="1" pageWidth="827" pageHeight="1169" math="0" shadow="0">
      <root>
        <mxCell id="0" />
        <mxCell id="1" parent="0" />
        <mxCell id="3oaCq2TYJv2ms8W_jR_V-11" style="edgeStyle=orthogonalEdgeStyle;rounded=0;orthogonalLoop=1;jettySize=auto;html=1;entryX=0;entryY=0.5;entryDx=0;entryDy=0;" edge="1" parent="1" source="3oaCq2TYJv2ms8W_jR_V-1" target="3oaCq2TYJv2ms8W_jR_V-2">
          <mxGeometry relative="1" as="geometry" />
        </mxCell>
        <mxCell id="3oaCq2TYJv2ms8W_jR_V-12" style="edgeStyle=orthogonalEdgeStyle;rounded=0;orthogonalLoop=1;jettySize=auto;html=1;entryX=0;entryY=0.5;entryDx=0;entryDy=0;" edge="1" parent="1" source="3oaCq2TYJv2ms8W_jR_V-1" target="3oaCq2TYJv2ms8W_jR_V-3">
          <mxGeometry relative="1" as="geometry" />
        </mxCell>
        <mxCell id="3oaCq2TYJv2ms8W_jR_V-13" style="edgeStyle=orthogonalEdgeStyle;rounded=0;orthogonalLoop=1;jettySize=auto;html=1;entryX=0;entryY=0.5;entryDx=0;entryDy=0;" edge="1" parent="1" source="3oaCq2TYJv2ms8W_jR_V-1" target="3oaCq2TYJv2ms8W_jR_V-4">
          <mxGeometry relative="1" as="geometry" />
        </mxCell>
        <mxCell id="3oaCq2TYJv2ms8W_jR_V-14" style="edgeStyle=orthogonalEdgeStyle;rounded=0;orthogonalLoop=1;jettySize=auto;html=1;entryX=0;entryY=0.5;entryDx=0;entryDy=0;" edge="1" parent="1" source="3oaCq2TYJv2ms8W_jR_V-1" target="3oaCq2TYJv2ms8W_jR_V-5">
          <mxGeometry relative="1" as="geometry" />
        </mxCell>
        <mxCell id="3oaCq2TYJv2ms8W_jR_V-15" style="edgeStyle=orthogonalEdgeStyle;rounded=0;orthogonalLoop=1;jettySize=auto;html=1;" edge="1" parent="1" source="3oaCq2TYJv2ms8W_jR_V-1" target="3oaCq2TYJv2ms8W_jR_V-6">
          <mxGeometry relative="1" as="geometry" />
        </mxCell>
        <mxCell id="3oaCq2TYJv2ms8W_jR_V-17" style="edgeStyle=orthogonalEdgeStyle;rounded=0;orthogonalLoop=1;jettySize=auto;html=1;entryX=0;entryY=0.5;entryDx=0;entryDy=0;" edge="1" parent="1" source="3oaCq2TYJv2ms8W_jR_V-1" target="3oaCq2TYJv2ms8W_jR_V-7">
          <mxGeometry relative="1" as="geometry" />
        </mxCell>
        <mxCell id="3oaCq2TYJv2ms8W_jR_V-18" style="edgeStyle=orthogonalEdgeStyle;rounded=0;orthogonalLoop=1;jettySize=auto;html=1;entryX=0;entryY=0.5;entryDx=0;entryDy=0;" edge="1" parent="1" source="3oaCq2TYJv2ms8W_jR_V-1" target="3oaCq2TYJv2ms8W_jR_V-8">
          <mxGeometry relative="1" as="geometry" />
        </mxCell>
        <mxCell id="3oaCq2TYJv2ms8W_jR_V-19" style="edgeStyle=orthogonalEdgeStyle;rounded=0;orthogonalLoop=1;jettySize=auto;html=1;entryX=0;entryY=0.5;entryDx=0;entryDy=0;" edge="1" parent="1" source="3oaCq2TYJv2ms8W_jR_V-1" target="3oaCq2TYJv2ms8W_jR_V-9">
          <mxGeometry relative="1" as="geometry" />
        </mxCell>
        <mxCell id="3oaCq2TYJv2ms8W_jR_V-20" style="edgeStyle=orthogonalEdgeStyle;rounded=0;orthogonalLoop=1;jettySize=auto;html=1;entryX=0;entryY=0.5;entryDx=0;entryDy=0;" edge="1" parent="1" source="3oaCq2TYJv2ms8W_jR_V-1" target="3oaCq2TYJv2ms8W_jR_V-10">
          <mxGeometry relative="1" as="geometry" />
        </mxCell>
        <mxCell id="3oaCq2TYJv2ms8W_jR_V-1" value="开发人员" style="shape=umlActor;verticalLabelPosition=bottom;verticalAlign=top;html=1;outlineConnect=0;" vertex="1" parent="1">
          <mxGeometry x="170" y="400" width="30" height="60" as="geometry" />
        </mxCell>
        <mxCell id="3oaCq2TYJv2ms8W_jR_V-2" value="软件版本管理" style="rounded=1;whiteSpace=wrap;html=1;" vertex="1" parent="1">
          <mxGeometry x="354" y="120" width="120" height="60" as="geometry" />
        </mxCell>
        <mxCell id="3oaCq2TYJv2ms8W_jR_V-3" value="匿名 ID 获取" style="rounded=1;whiteSpace=wrap;html=1;" vertex="1" parent="1">
          <mxGeometry x="354" y="190" width="120" height="60" as="geometry" />
        </mxCell>
        <mxCell id="3oaCq2TYJv2ms8W_jR_V-4" value="星历数据获取" style="rounded=1;whiteSpace=wrap;html=1;" vertex="1" parent="1">
          <mxGeometry x="354" y="260" width="120" height="60" as="geometry" />
        </mxCell>
        <mxCell id="3oaCq2TYJv2ms8W_jR_V-5" value="差分数据获取" style="rounded=1;whiteSpace=wrap;html=1;" vertex="1" parent="1">
          <mxGeometry x="354" y="330" width="120" height="60" as="geometry" />
        </mxCell>
        <mxCell id="3oaCq2TYJv2ms8W_jR_V-6" value="原始位置数据获取" style="rounded=1;whiteSpace=wrap;html=1;" vertex="1" parent="1">
          <mxGeometry x="354" y="400" width="120" height="60" as="geometry" />
        </mxCell>
        <mxCell id="3oaCq2TYJv2ms8W_jR_V-7" value="星历数据播发" style="rounded=1;whiteSpace=wrap;html=1;" vertex="1" parent="1">
          <mxGeometry x="354" y="470" width="120" height="60" as="geometry" />
        </mxCell>
        <mxCell id="3oaCq2TYJv2ms8W_jR_V-8" value="差分数据播发" style="rounded=1;whiteSpace=wrap;html=1;" vertex="1" parent="1">
          <mxGeometry x="354" y="540" width="120" height="60" as="geometry" />
        </mxCell>
        <mxCell id="3oaCq2TYJv2ms8W_jR_V-9" value="故障状态上报" style="rounded=1;whiteSpace=wrap;html=1;" vertex="1" parent="1">
          <mxGeometry x="354" y="610" width="120" height="60" as="geometry" />
        </mxCell>
        <mxCell id="3oaCq2TYJv2ms8W_jR_V-10" value="状态日志记录" style="rounded=1;whiteSpace=wrap;html=1;" vertex="1" parent="1">
          <mxGeometry x="354" y="680" width="120" height="60" as="geometry" />
        </mxCell>
      </root>
    </mxGraphModel>
  </diagram>
</mxfile>
